# xmcd CD database file
#
# Track frame offsets:
#	150
#	9675
#	16050
#	32025
#	46050
#	56325
#	66075
#	73650
#	80925
#	88050
#	99450
#	107400
#	117150
#	128925
#
# Disc length: 1900 seconds
#
# Revision: 1
# Processed by: cddbd v1.5.1PL0 Copyright (c) Steve Scherf et al.
# Submitted via: freeDBTagger 0.5
#
DISCID=b2076a0e
DTITLE=Pennywise - Pennywise
DYEAR=1991
DGENRE=rock
TTITLE0=Wouldn't It Be Nice
TTITLE1=Rules
TTITLE2=The Secret
TTITLE3=Living For Today
TTITLE4=Come Out Fighting
TTITLE5=Homeless
TTITLE6=Open door
TTITLE7=Pennywise
TTITLE8=Who's To Blame
TTITLE9=Fun and Games
TTITLE10=Kodiak
TTITLE11=Unite
TTITLE12=No Reason Why
TTITLE13=Bro Hymn
EXTD=
EXTT0=
EXTT1=
EXTT2=
EXTT3=
EXTT4=
EXTT5=
EXTT6=
EXTT7=
EXTT8=
EXTT9=
EXTT10=
EXTT11=
EXTT12=
EXTT13=
PLAYORDER=
